<svg xmlns="http://www.w3.org/2000/svg" width="64" height="64" viewBox="0 0 64 64">
  <rect x="4" y="7" width="56" height="50" rx="17" fill="#82D84F" stroke="#0B0501" stroke-width="5"/>
  <path d="M14 29c7-10 19-13 29-5 8-6 15-4 21 4-8 7-18 11-29 10-9 0-16-3-21-9Z" fill="#0B0501"/>
  <ellipse cx="26" cy="29" rx="7" ry="5" fill="#FFFFFF"/>
  <ellipse cx="44" cy="29" rx="7" ry="5" fill="#FFFFFF"/>
  <circle cx="26" cy="29" r="2.4" fill="#FF6803"/>
  <circle cx="44" cy="29" r="2.4" fill="#FF6803"/>
  <path d="M31 43l3-6 3 6 6 3-6 3-3 6-3-6-6-3 6-3Z" fill="#FFFFFF" stroke="#0B0501" stroke-width="2"/>
</svg>
