<svg xmlns="http://www.w3.org/2000/svg" width="160" height="160" viewBox="0 0 160 160" role="img" aria-labelledby="title desc">
  <title id="title">StellarProof logo mark</title>
  <desc id="desc">The StellarProof green watchful mask favicon used as a standalone logo mark.</desc>
  <defs>
    <pattern id="halftone" width="8" height="8" patternUnits="userSpaceOnUse">
      <circle cx="2" cy="2" r="1.1" fill="#0B0501" opacity=".28"/>
    </pattern>
  </defs>

  <g transform="translate(18 18) scale(1.9375)">
    <rect x="4" y="7" width="56" height="50" rx="17" fill="#82D84F" stroke="#0B0501" stroke-width="5"/>
    <rect x="4" y="7" width="56" height="50" rx="17" fill="url(#halftone)" opacity=".72"/>
    <path d="M14 29c7-10 19-13 29-5 8-6 15-4 21 4-8 7-18 11-29 10-9 0-16-3-21-9Z" fill="#0B0501"/>
    <ellipse cx="26" cy="29" rx="7" ry="5" fill="#FFFFFF"/>
    <ellipse cx="44" cy="29" rx="7" ry="5" fill="#FFFFFF"/>
    <circle cx="26" cy="29" r="2.4" fill="#FF6803"/>
    <circle cx="44" cy="29" r="2.4" fill="#FF6803"/>
    <path d="M31 43l3-6 3 6 6 3-6 3-3 6-3-6-6-3 6-3Z" fill="#FFFFFF" stroke="#0B0501" stroke-width="2"/>
  </g>
</svg>
